# xmcd
#
# Track frame offsets: 
#        150
#        56730
#        103096
#        141755
#
# Disc length: 2730 seconds
#
# Revision: 0
# Processed by: cddbd v1.5.1PL0 Copyright (c) Steve Scherf et al.
# Submitted via: ExactAudioCopy v0.95a4
#
DISCID=350aa804
DTITLE=George Benson - Love For Sale
DYEAR=1998
DGENRE=Blues
TTITLE0=All Blues - M. Davis
TTITLE1=Oleo - S. Rollins
TTITLE2=All The Things You Are - Kern Hammerstein
TTITLE3=Love for Sale - C. Porter
EXTD=
EXTT0=
EXTT1=
EXTT2=
EXTT3=
PLAYORDER=
